# xmcd CD database file
#
# Track frame offsets:
#	150
#	10049
#	19961
#	29359
#	39796
#	51407
#	64972
#	77779
#	86916
#	96962
#	105542
#	117640
#	133147
#	144204
#
# Disc length: 2115 seconds
#
# Revision: 0
# Processed by: cddbd v1.5.1PL2 Copyright (c) Steve Scherf et al.
# Submitted via: CDex 1.51
#
DISCID=bd08410e
DTITLE=Jim Reeves - Iv'e Forgotten You
DYEAR=1900
DGENRE=Country
TTITLE0=Am I Losing You
TTITLE1=Gypsy Feet
TTITLE2=Blues In My Heart
TTITLE3=Each Time You Leave
TTITLE4=Have I Told You Lately That I Love You
TTITLE5=How's The World Treating You
TTITLE6=I Get The Blues When It Rains
TTITLE7=I've Forgotten You
TTITLE8=My Lips Are Sealed
TTITLE9=You're The Sweetest Thing
TTITLE10=Trying To Forget
TTITLE11=Crying is My Favortie Mood
TTITLE12=Everywhere You Go
TTITLE13=I'm A Hit Again
EXTD=
EXTT0=
EXTT1=
EXTT2=
EXTT3=
EXTT4=
EXTT5=
EXTT6=
EXTT7=
EXTT8=
EXTT9=
EXTT10=
EXTT11=
EXTT12=
EXTT13=
PLAYORDER=
